<?xml version="1.0" standalone="no"?>
<!DOCTYPE svg PUBLIC "-//W3C//DTD SVG 20010904//EN"
 "http://www.w3.org/TR/2001/REC-SVG-20010904/DTD/svg10.dtd">
<svg version="1.0" xmlns="http://www.w3.org/2000/svg"
 width="160.000000pt" height="160.000000pt" viewBox="0 0 160.000000 160.000000"
 preserveAspectRatio="xMidYMid meet">

<g transform="translate(0.000000,160.000000) scale(0.100000,-0.100000)"
fill="#000000" stroke="none">
<path d="M654 1382 c-328 -213 -464 -554 -354 -888 52 -156 193 -301 347 -356
82 -29 236 -35 327 -14 147 35 271 130 328 252 39 84 50 217 25 305 -38 131
-151 217 -310 237 l-58 7 152 225 c84 123 152 231 153 238 1 8 -6 19 -15 25
-13 8 -26 3 -61 -26 -82 -67 -115 -68 -177 -3 -19 20 -38 36 -42 36 -7 0 -356
-275 -388 -306 -13 -12 -12 -16 3 -33 17 -19 20 -19 42 -4 l24 15 0 -366 c0
-355 -1 -366 -20 -378 -24 -15 -25 -31 -5 -48 12 -10 30 0 100 56 l85 68 0
139 c0 124 2 143 21 173 11 19 23 34 25 34 2 0 4 -137 4 -305 l0 -305 -33 0
c-98 0 -221 59 -268 129 -104 155 -133 597 -52 803 31 80 103 177 175 235 44
36 67 61 63 70 -3 8 -5 17 -5 19 0 13 -34 -1 -86 -34z m284 -153 l62 -22 55
20 c30 11 52 15 48 9 -3 -6 -47 -72 -97 -146 l-91 -135 -3 58 c-3 53 -5 57
-27 57 -25 0 -25 -1 -25 -96 0 -83 -3 -102 -22 -133 l-23 -36 -3 209 c-2 186
-1 211 15 228 9 11 24 17 33 14 8 -3 43 -15 78 -27z m126 -382 c41 -23 82 -87
88 -137 2 -21 -5 -29 -42 -48 -54 -28 -127 -26 -168 5 -25 19 -27 26 -30 112
l-3 91 58 0 c41 0 69 -7 97 -23z m-77 -250 c42 -11 112 -3 167 19 18 7 19 3
12 -72 -10 -117 -13 -127 -45 -117 -34 10 -137 10 -178 0 l-33 -9 0 102 c0 93
2 102 18 95 9 -3 36 -11 59 -18z m112 -218 c38 -13 39 -23 2 -80 -36 -57 -93
-104 -148 -123 l-43 -15 0 99 0 98 38 15 c44 19 107 21 151 6z"/>
</g>
</svg>
